<?xml version="1.0" encoding="UTF-8"?>
<!DOCTYPE svg PUBLIC "-//W3C//DTD SVG 1.1//EN" "http://www.w3.org/Graphics/SVG/1.1/DTD/svg11.dtd">
<svg xmlns="http://www.w3.org/2000/svg" version="1.1" width="512px" height="512px" style="shape-rendering:geometricPrecision; text-rendering:geometricPrecision; image-rendering:optimizeQuality; fill-rule:evenodd; clip-rule:evenodd" xmlns:xlink="http://www.w3.org/1999/xlink">
<g><path style="opacity:0.961" fill="#000000" d="M 116.5,-0.5 C 128.5,-0.5 140.5,-0.5 152.5,-0.5C 220.73,10.231 259.563,49.8976 269,118.5C 272.125,188.501 247.958,247.001 196.5,294C 155.773,327.627 114.773,327.961 73.5,295C 31.89,257.619 7.22329,211.119 -0.5,155.5C -0.5,143.167 -0.5,130.833 -0.5,118.5C 9.25906,50.0743 48.2591,10.4077 116.5,-0.5 Z M 133.5,29.5 C 201.136,33.1362 236.136,68.8029 238.5,136.5C 236.076,192.178 213.743,238.011 171.5,274C 146.833,293.333 122.167,293.333 97.5,274C 48.4521,231.721 26.6187,178.221 32,113.5C 40.3042,68.5297 66.8042,41.3631 111.5,32C 118.981,31.1416 126.314,30.3083 133.5,29.5 Z"/></g>
<g><path style="opacity:0.971" fill="#000000" d="M 289.5,-0.5 C 318.167,-0.5 346.833,-0.5 375.5,-0.5C 391.885,4.04709 403.052,14.3804 409,30.5C 410.29,52.4497 410.957,74.4497 411,96.5C 416.571,90.258 422.738,84.758 429.5,80C 445.667,77.5 452.5,84.3333 450,100.5C 436.229,116.273 421.729,131.439 406.5,146C 399.167,150.667 391.833,150.667 384.5,146C 369.271,131.439 354.771,116.273 341,100.5C 339.092,83.1993 346.592,76.6993 363.5,81C 369.302,85.8004 374.802,90.967 380,96.5C 380.667,79.1667 380.667,61.8333 380,44.5C 379.167,35.6667 374.333,30.8333 365.5,30C 340.167,29.6667 314.833,29.3333 289.5,29C 280.525,23.8483 278.025,16.3483 282,6.5C 284.015,3.58828 286.515,1.25495 289.5,-0.5 Z"/></g>
<g><path style="opacity:0.961" fill="#000000" d="M 68.5,99.5 C 79.9355,99.0441 91.2688,99.5441 102.5,101C 105.473,102.765 107.64,105.265 109,108.5C 111.748,117.819 108.915,124.652 100.5,129C 89.0692,129.955 77.7358,129.622 66.5,128C 61.4076,124.983 59.0743,120.483 59.5,114.5C 59.6433,107.709 62.6433,102.709 68.5,99.5 Z"/></g>
<g><path style="opacity:0.961" fill="#000000" d="M 168.5,99.5 C 179.936,99.0441 191.269,99.5441 202.5,101C 205.473,102.765 207.64,105.265 209,108.5C 211.748,117.819 208.915,124.652 200.5,129C 189.069,129.955 177.736,129.622 166.5,128C 161.408,124.983 159.074,120.483 159.5,114.5C 159.643,107.709 162.643,102.709 168.5,99.5 Z"/></g>
<g><path style="opacity:0.961" fill="#000000" d="M 511.5,310.5 C 511.5,322.833 511.5,335.167 511.5,347.5C 504.369,398.596 482.702,442.429 446.5,479C 429.883,494.806 410.55,505.639 388.5,511.5C 380.5,511.5 372.5,511.5 364.5,511.5C 339.154,505.012 317.654,492.012 300,472.5C 253.048,420.969 234.715,360.636 245,291.5C 260.371,232.8 298.204,199.634 358.5,192C 399.079,187.224 435.412,197.224 467.5,222C 493.247,245.995 507.914,275.495 511.5,310.5 Z M 375.5,221.5 C 443.136,225.136 478.136,260.803 480.5,328.5C 478.076,384.178 455.743,430.011 413.5,466C 388.833,485.333 364.167,485.333 339.5,466C 290.452,423.721 268.619,370.221 274,305.5C 282.304,260.53 308.804,233.363 353.5,224C 360.981,223.142 368.314,222.308 375.5,221.5 Z"/></g>
<g><path style="opacity:0.952" fill="#000000" d="M 105.5,203.5 C 109.273,203.263 112.94,203.763 116.5,205C 122.975,212.237 130.975,214.904 140.5,213C 145.52,209.968 150.52,206.968 155.5,204C 170.007,203.177 176.173,210.01 174,224.5C 167.175,235.343 157.341,241.843 144.5,244C 125.901,247.022 110.068,241.855 97,228.5C 91.4434,217.094 94.2767,208.761 105.5,203.5 Z"/></g>
<g><path style="opacity:0.961" fill="#000000" d="M 310.5,291.5 C 321.936,291.044 333.269,291.544 344.5,293C 347.473,294.765 349.64,297.265 351,300.5C 353.748,309.819 350.915,316.652 342.5,321C 331.069,321.955 319.736,321.622 308.5,320C 303.408,316.983 301.074,312.483 301.5,306.5C 301.643,299.709 304.643,294.709 310.5,291.5 Z"/></g>
<g><path style="opacity:0.961" fill="#000000" d="M 410.5,291.5 C 421.936,291.044 433.269,291.544 444.5,293C 447.473,294.765 449.64,297.265 451,300.5C 453.748,309.819 450.915,316.652 442.5,321C 431.069,321.955 419.736,321.622 408.5,320C 403.408,316.983 401.074,312.483 401.5,306.5C 401.643,299.709 404.643,294.709 410.5,291.5 Z"/></g>
<g><path style="opacity:0.971" fill="#000000" d="M 221.5,511.5 C 192.833,511.5 164.167,511.5 135.5,511.5C 119.115,506.953 107.948,496.62 102,480.5C 100.71,458.55 100.043,436.55 100,414.5C 94.4286,420.742 88.262,426.242 81.5,431C 65.3333,433.5 58.5,426.667 61,410.5C 74.7707,394.727 89.2707,379.561 104.5,365C 111.833,360.333 119.167,360.333 126.5,365C 141.729,379.561 156.229,394.727 170,410.5C 171.908,427.801 164.408,434.301 147.5,430C 141.698,425.2 136.198,420.033 131,414.5C 130.333,431.833 130.333,449.167 131,466.5C 131.833,475.333 136.667,480.167 145.5,481C 170.833,481.333 196.167,481.667 221.5,482C 230.475,487.152 232.975,494.652 229,504.5C 226.985,507.412 224.485,509.745 221.5,511.5 Z"/></g>
<g><path style="opacity:0.952" fill="#000000" d="M 347.5,395.5 C 351.273,395.263 354.94,395.763 358.5,397C 364.975,404.237 372.975,406.904 382.5,405C 387.52,401.968 392.52,398.968 397.5,396C 412.007,395.177 418.173,402.01 416,416.5C 409.175,427.343 399.341,433.843 386.5,436C 367.901,439.022 352.068,433.855 339,420.5C 333.443,409.094 336.277,400.761 347.5,395.5 Z"/></g>
</svg>
