<?xml version="1.0" encoding="UTF-8"?>
<svg version="1.1" xmlns="http://www.w3.org/2000/svg" width="1710" height="268">
<path d="M0 0 C564.3 0 1128.6 0 1710 0 C1710 88.44 1710 176.88 1710 268 C1145.7 268 581.4 268 0 268 C0 179.56 0 91.12 0 0 Z " fill="#FEFEFE" transform="translate(0,0)"/>
<path d="M0 0 C6.42885917 0.2286724 12.79186644 0.09276094 19.21847534 -0.13723755 C44.96244713 -0.92327692 67.2370828 1.5773481 86.93171692 19.48330688 C104.61610982 36.76095595 111.13550563 54.87061521 111.76112366 79.32617188 C111.80342367 85.39622332 111.61159245 91.44329992 111.34300613 97.5067749 C111.19022376 101.25584215 111.10842501 105.00090087 111.04318237 108.75244141 C109.92484499 163.08871472 109.92484499 163.08871472 91.3527832 181.86254883 C77.29751425 194.58664132 62.12103415 200.20196522 43.19189453 199.71484375 C37.25189453 198.88984375 31.31189453 198.06484375 25.19189453 197.21484375 C25.19189453 210.41484375 25.19189453 223.61484375 25.19189453 237.21484375 C13.64189453 237.21484375 2.09189453 237.21484375 -9.80810547 237.21484375 C-9.80810547 224.01484375 -9.80810547 210.81484375 -9.80810547 197.21484375 C-15.74810547 198.03984375 -21.68810547 198.86484375 -27.80810547 199.71484375 C-46.73724509 200.20196522 -61.91372519 194.58664132 -75.96899414 181.86254883 C-96.02733202 161.58629129 -95.26008705 131.71309584 -95.7251091 104.97369385 C-95.80721064 101.25537014 -95.95752005 97.54508601 -96.12210083 93.82958984 C-97.12822654 67.61086195 -94.87817976 44.81735686 -76.68315125 24.64096069 C-54.72592819 1.96965901 -30.38655614 -1.0874883 0 0 Z " fill="#551288" transform="translate(110.80810546875,18.78515625)"/>
<path d="M0 0 C7.51306461 0.44512219 15.02795258 0.65255533 22.55102044 0.8464734 C37.96419238 1.24878451 53.34065241 1.96006758 68.73666662 2.80909401 C68.73666662 15.67909401 68.73666662 28.54909401 68.73666662 41.80909401 C65.63445715 41.76083473 62.53224767 41.71257546 59.33603185 41.66285378 C49.03845479 41.51375572 38.74153658 41.44831755 28.44294924 41.42306286 C22.20376985 41.40523221 15.9673912 41.36002381 9.72909826 41.25025612 C3.69811203 41.14517644 -2.32923845 41.11461557 -8.36106402 41.13375336 C-10.65152905 41.1283036 -12.94209723 41.0968735 -15.23181063 41.03794724 C-25.54066958 40.78739918 -34.85081823 40.58402327 -43.18689829 47.34215218 C-49.79365308 53.69124652 -52.87342613 59.94807693 -53.29794985 69.0830484 C-53.32246891 71.55849251 -53.27590417 74.0256497 -53.22036463 76.50050026 C-53.22795704 78.26158809 -53.24015284 80.02266135 -53.25666529 81.78368813 C-53.27413436 85.45074962 -53.23876378 89.11226976 -53.16396815 92.77857643 C-53.07278217 97.44077773 -53.11180238 102.0911039 -53.19035536 106.7531715 C-53.23743685 110.38241216 -53.21643023 114.00892476 -53.17569262 117.63814789 C-53.16398114 119.35424189 -53.17214822 121.07060866 -53.2020331 122.78648239 C-53.32510799 132.23245638 -52.19852914 139.65805304 -45.67959315 146.86988503 C-38.05378884 154.18327863 -29.66662878 154.57808267 -19.5158053 154.54771096 C-17.24671879 154.49832799 -14.97766546 154.44739959 -12.70864588 154.39503151 C-10.35211066 154.39135097 -7.99555841 154.39386415 -5.63903528 154.40226418 C0.52072808 154.4077846 6.67663789 154.32997363 12.83554357 154.23395973 C19.13706245 154.15074481 25.43858766 154.14748589 31.74057287 154.13721901 C44.0742235 154.10548081 56.40413368 153.97818898 68.73666662 153.80909401 C68.73666662 167.00909401 68.73666662 180.20909401 68.73666662 193.80909401 C52.70261196 194.67650202 36.68934925 195.37186137 20.63814634 195.77795655 C13.18032256 195.97176861 5.73850628 196.23510717 -1.70913416 196.67579323 C-54.54085319 199.74194988 -54.54085319 199.74194988 -71.82095057 185.21632057 C-80.99941583 176.93448651 -88.90182709 167.43837193 -96.02684313 157.35599381 C-97.20081138 155.66559387 -97.20081138 155.66559387 -99.26333338 154.80909401 C-100.18791982 140.75581876 -100.86561233 126.70741918 -101.28400809 112.62965733 C-101.48520738 106.08553482 -101.75595003 99.56218089 -102.20547205 93.03004128 C-103.8566148 68.30815798 -104.7363913 44.23691001 -88.54241663 23.94852883 C-64.44709188 -3.40258319 -33.42679073 -2.01557198 0 0 Z " fill="#551187" transform="translate(1059.2633333802223,22.1909059882164)"/>
<path d="M0 0 C12.29350308 -0.63875116 24.57560724 -1.14949762 36.88209915 -1.45074081 C42.60030348 -1.59551388 48.30636956 -1.79075046 54.01757812 -2.11230469 C97.70495097 -4.49850057 97.70495097 -4.49850057 113.27137756 8.86177063 C125.73703494 20.69832026 128.16019625 34.48341772 128.68550873 51.16179657 C128.81905924 61.0963906 128.41716404 70.99433573 127.92260742 80.91442871 C127.6324464 87.36220069 127.50752822 93.8131619 127.3671875 100.265625 C127.06977443 112.85334649 126.57895325 125.42208157 126 138 C114.78 138 103.56 138 92 138 C92 134.37 92 130.74 92 127 C86.5975905 127.82210579 84.40547036 129.48347107 80.69165039 133.48779297 C74.32188836 139.32108739 68.13375233 139.57632086 59.80859375 139.7578125 C58.3417397 139.81470149 56.87492269 139.8725527 55.40814209 139.93130493 C50.75077606 140.08945528 46.09723112 140.12089643 41.4375 140.125 C40.65326786 140.12859024 39.86903572 140.13218048 39.06103897 140.13587952 C1.90281437 140.24253381 1.90281437 140.24253381 -9.35940552 129.34124756 C-18.19660474 119.6638509 -21.35152993 107.85995492 -22.125 95 C-22.19369293 94.29000854 -22.26238586 93.58001709 -22.3331604 92.84851074 C-23.06831629 82.51547796 -18.23844353 74.67499916 -11.86909485 66.90513611 C-3.46984188 57.23167401 4.70038771 50.96008429 17.72246552 49.78620338 C26.29741716 49.29389116 34.85044356 49.73145233 43.41088867 50.28338623 C47.88738908 50.54356401 52.36766116 50.65420785 56.84960938 50.77929688 C65.57642316 51.04401817 74.28541205 51.46786043 83 52 C82.86991866 50.54352779 82.73093604 49.08784849 82.58813477 47.63256836 C82.51168228 46.82186386 82.4352298 46.01115936 82.35646057 45.17588806 C81.91036637 42.45286305 81.0854802 41.273775 78.9375 39.5625 C77.968125 38.716875 76.99875 37.87125 76 37 C76 36.34 76 35.68 76 35 C50.92 35 25.84 35 0 35 C0 23.45 0 11.9 0 0 Z " fill="#551187" transform="translate(1290,78)"/>
<path d="M0 0 C0.76270203 0.43350266 1.52540405 0.86700531 2.31121826 1.31364441 C11.10719203 7.506404 14.09157453 17.02900221 19.421875 26.54296875 C19.421875 43.37296875 19.421875 60.20296875 19.421875 77.54296875 C-15.228125 77.54296875 -49.878125 77.54296875 -85.578125 77.54296875 C-84.56420617 86.66823818 -84.25655156 88.8049722 -77.96368408 94.55316162 C-70.97162186 98.66263215 -63.11648038 97.87425802 -55.2265625 97.73828125 C-53.35754029 97.7420737 -51.48852232 97.75027228 -49.61953735 97.76266479 C-44.7295985 97.78337311 -39.84191047 97.74470409 -34.95227051 97.69317627 C-29.95122884 97.65114301 -24.95037975 97.66593532 -19.94921875 97.67578125 C-10.1580115 97.6867648 -0.3689548 97.62969169 9.421875 97.54296875 C9.421875 109.09296875 9.421875 120.64296875 9.421875 132.54296875 C-3.84550885 133.27348967 -17.09904888 133.85692694 -30.38218689 134.20095825 C-36.55452141 134.36631143 -42.71213092 134.58917649 -48.87597656 134.95703125 C-94.41642123 137.59875918 -94.41642123 137.59875918 -111.58422852 122.83276367 C-124.96298667 110.19708917 -132.43414121 96.19140008 -133.0425415 77.71640015 C-133.07998295 73.78218126 -132.93085919 69.87157309 -132.70936584 65.9441452 C-132.57616341 63.50707965 -132.48802291 61.07147515 -132.40759277 58.63214111 C-131.68642353 39.44970601 -130.36590776 18.23025182 -115.92773438 4.05175781 C-91.43157145 -16.84339924 -26.92737748 -15.50627618 0 0 Z " fill="#551187" transform="translate(907.578125,83.45703125)"/>
<path d="M0 0 C0.76270203 0.43350266 1.52540405 0.86700531 2.31121826 1.31364441 C11.10719203 7.506404 14.09157453 17.02900221 19.421875 26.54296875 C19.421875 43.37296875 19.421875 60.20296875 19.421875 77.54296875 C-15.228125 77.54296875 -49.878125 77.54296875 -85.578125 77.54296875 C-84.56420617 86.66823818 -84.25655156 88.8049722 -77.96368408 94.55316162 C-70.97162186 98.66263215 -63.11648038 97.87425802 -55.2265625 97.73828125 C-53.35754029 97.7420737 -51.48852232 97.75027228 -49.61953735 97.76266479 C-44.7295985 97.78337311 -39.84191047 97.74470409 -34.95227051 97.69317627 C-29.95122884 97.65114301 -24.95037975 97.66593532 -19.94921875 97.67578125 C-10.1580115 97.6867648 -0.3689548 97.62969169 9.421875 97.54296875 C9.421875 109.09296875 9.421875 120.64296875 9.421875 132.54296875 C-3.84550885 133.27348967 -17.09904888 133.85692694 -30.38218689 134.20095825 C-36.55452141 134.36631143 -42.71213092 134.58917649 -48.87597656 134.95703125 C-94.41642123 137.59875918 -94.41642123 137.59875918 -111.58422852 122.83276367 C-124.96298667 110.19708917 -132.43414121 96.19140008 -133.0425415 77.71640015 C-133.07998295 73.78218126 -132.93085919 69.87157309 -132.70936584 65.9441452 C-132.57616341 63.50707965 -132.48802291 61.07147515 -132.40759277 58.63214111 C-131.68642353 39.44970601 -130.36590776 18.23025182 -115.92773438 4.05175781 C-91.43157145 -16.84339924 -26.92737748 -15.50627618 0 0 Z " fill="#541187" transform="translate(555.578125,83.45703125)"/>
<path d="M0 0 C14.52 0 29.04 0 44 0 C43.99097656 6.70441406 43.98195313 13.40882812 43.97265625 20.31640625 C43.98249629 24.56844667 43.99438952 28.82028315 44.01367188 33.07226562 C44.04407059 39.8186119 44.06694027 46.56438619 44.04467773 53.31079102 C44.02720105 58.75117435 44.04373761 64.19049647 44.08367729 69.63075066 C44.09295834 71.70430611 44.09006488 73.7779536 44.07469368 75.85147285 C44.05522267 78.76096746 44.07936997 81.66712392 44.11352539 84.57641602 C44.0977092 85.43021851 44.08189301 86.284021 44.06559753 87.16369629 C44.17379953 91.96617923 44.96047725 94.50613724 48.31959534 98.03137207 C51.840195 101.29316365 55.0715512 102.04170977 59.8046875 101.96484375 C60.88981125 101.97844688 60.88981125 101.97844688 61.99685669 101.99232483 C63.51791929 102.00141452 65.03918032 101.99289342 66.56005859 101.9675293 C68.86562706 101.93762159 71.15998759 101.98755897 73.46484375 102.04492188 C80.52324738 102.08823259 85.9385961 101.93138596 91.4453125 96.94140625 C92.10289551 96.20736572 92.76047852 95.4733252 93.43798828 94.71704102 C93.95345215 94.15041748 94.46891602 93.58379395 95 93 C95.66 93 96.32 93 97 93 C97 62.31 97 31.62 97 0 C111.52 0 126.04 0 141 0 C141 45.54 141 91.08 141 138 C129.45 138 117.9 138 106 138 C106 134.37 106 130.74 106 127 C100.60790794 127.82053575 98.31370781 129.53336413 94.54394531 133.47680664 C88.72896695 138.80627325 83.88616805 139.61244197 76.171875 139.93359375 C74.33547455 140.02121727 74.33547455 140.02121727 72.4619751 140.11061096 C69.87083718 140.20839964 67.27859349 140.28000423 64.68603516 140.3269043 C60.80882635 140.43584708 56.98538363 140.75220308 53.12109375 141.07617188 C37.9810335 141.78061406 26.6296455 137.94606219 15.20719528 128.18385887 C2.73304771 116.75053038 -1.93307494 105.35797055 -2.80810547 88.54472351 C-3.09564458 77.63297151 -2.65531816 66.76924101 -2.05993652 55.87536621 C-1.74861127 49.56193666 -1.61512273 43.24473132 -1.46484375 36.92578125 C-1.14650489 24.60588559 -0.62086249 12.30836001 0 0 Z " fill="#561388" transform="translate(605,78)"/>
<path d="M0 0 C14.19 0 28.38 0 43 0 C42.979375 6.620625 42.95875 13.24125 42.9375 20.0625 C42.94223001 24.26443169 42.94931176 28.46609699 42.96484375 32.66796875 C42.98925772 39.33310739 43.00510584 45.99747527 42.96923828 52.66259766 C42.94085574 58.03822147 42.95147817 63.41250034 42.98880005 68.78805542 C42.99622917 70.83568039 42.98975854 72.88340587 42.96896362 74.93093872 C42.3380918 87.45809184 42.3380918 87.45809184 47.58666992 98.25170898 C51.45326031 101.13395716 54.75468874 102.03881463 59.61328125 102.09765625 C60.30834274 102.10768173 61.00340424 102.11770721 61.7195282 102.1280365 C63.17915036 102.13778648 64.63903433 102.12751142 66.09838867 102.09790039 C68.30204173 102.06266721 70.49060923 102.11783207 72.69335938 102.18164062 C74.12501691 102.17994709 75.55667991 102.17295344 76.98828125 102.16015625 C78.26227783 102.15636963 79.53627441 102.15258301 80.84887695 102.14868164 C87.34425582 100.90982057 92.27556447 97.38393711 96 92 C98.00126829 85.25482218 97.42046743 77.95114188 97.29296875 70.99609375 C97.29489237 68.94628411 97.30166495 66.89647379 97.31306458 64.84669495 C97.33000469 59.47491312 97.28144022 54.10567961 97.21887207 48.73431396 C97.1574287 42.27738107 97.17796417 35.82024328 97.18463898 29.36309052 C97.18563914 19.57381237 97.08301983 9.7905478 97 0 C111.19 0 125.38 0 140 0 C140 45.54 140 91.08 140 138 C128.78 138 117.56 138 106 138 C106 134.37 106 130.74 106 127 C102.15859646 127.59755166 99.8273499 128.08338513 97.16259766 131.03564453 C89.98911319 138.94298111 81.8824048 139.58306227 71.63890076 140.12797546 C69.10581312 140.21417493 66.57196268 140.28005663 64.0378418 140.3269043 C60.24152276 140.43594827 56.49994508 140.75236992 52.71679688 141.07617188 C37.73197653 141.78756947 26.53746045 137.82995549 15.24465752 128.18385887 C2.7532907 116.74785561 -1.93595354 105.37684691 -2.80934143 88.54472351 C-3.09481058 77.63298846 -2.65531636 66.76920803 -2.05993652 55.87536621 C-1.74861127 49.56193666 -1.61512273 43.24473132 -1.46484375 36.92578125 C-1.14650489 24.60588559 -0.62086249 12.30836001 0 0 Z " fill="#541187" transform="translate(253,78)"/>
<path d="M0 0 C4.78772378 0.28180207 9.58258962 0.38313921 14.37630463 0.51642609 C21.58891875 0.7363691 28.75639887 1.17704929 35.97137451 1.57928467 C35.97137451 12.13928467 35.97137451 22.69928467 35.97137451 33.57928467 C32.51797607 33.63987061 29.06457764 33.70045654 25.50653076 33.76287842 C22.17716153 33.82461306 18.84782817 33.88802341 15.51849365 33.95159912 C13.19723678 33.99502206 10.87594644 34.03669151 8.55462646 34.07659912 C5.22599173 34.13412407 1.89752666 34.19786892 -1.43096924 34.26287842 C-2.47574936 34.27959091 -3.52052948 34.29630341 -4.5969696 34.31352234 C-5.55789017 34.33346756 -6.51881073 34.35341278 -7.5088501 34.3739624 C-8.78459145 34.39727882 -8.78459145 34.39727882 -10.08610535 34.42106628 C-12.03386347 34.36873296 -12.03386347 34.36873296 -13.02862549 35.57928467 C-13.35862549 41.84928467 -13.68862549 48.11928467 -14.02862549 54.57928467 C1.81137451 54.57928467 17.65137451 54.57928467 33.97137451 54.57928467 C33.97137451 65.79928467 33.97137451 77.01928467 33.97137451 88.57928467 C18.46137451 88.57928467 2.95137451 88.57928467 -13.02862549 88.57928467 C-13.02862549 122.89928467 -13.02862549 157.21928467 -13.02862549 192.57928467 C-27.54862549 192.57928467 -42.06862549 192.57928467 -57.02862549 192.57928467 C-57.02862549 158.25928467 -57.02862549 123.93928467 -57.02862549 88.57928467 C-65.93862549 88.57928467 -74.84862549 88.57928467 -84.02862549 88.57928467 C-84.02862549 77.35928467 -84.02862549 66.13928467 -84.02862549 54.57928467 C-75.11862549 54.57928467 -66.20862549 54.57928467 -57.02862549 54.57928467 C-57.29546143 52.68049561 -57.56229736 50.78170654 -57.83721924 48.82537842 C-57.99769068 46.89274404 -58.15713665 44.95991591 -58.29205322 43.02532959 C-58.45927397 41.09584138 -58.75224939 39.17851037 -59.05010986 37.26483154 C-59.6132414 27.54469157 -55.45573833 20.89644368 -49.16502762 13.71092606 C-34.9714617 -1.66051365 -19.77615245 -1.29136551 0 0 Z " fill="#551288" transform="translate(1521.0286254882813,23.42071533203125)"/>
<path d="M0 0 C14.19 0 28.38 0 43 0 C43 11.88 43 23.76 43 36 C58.51 36 74.02 36 90 36 C90 47.22 90 58.44 90 70 C74.49 70 58.98 70 43 70 C43.11973344 81.50403783 43.11973344 81.50403783 43.2578125 93.0078125 C43.31818346 97.69787369 43.37637903 102.38789286 43.421875 107.078125 C43.4586777 110.85836233 43.50502343 114.63837191 43.55806351 118.41841507 C43.57663427 119.86250448 43.59173228 121.30664276 43.60334396 122.7508049 C43.62015992 124.76935063 43.65033105 126.78777188 43.68115234 128.80615234 C43.69447601 129.95642914 43.70779968 131.10670593 43.7215271 132.2918396 C43.72737638 135.14808928 43.72737638 135.14808928 46 137 C48.05907197 137.32997447 48.05907197 137.32997447 50.44970703 137.31884766 C51.37051056 137.33871735 52.29131409 137.35858704 53.24002075 137.37905884 C54.23589203 137.39061005 55.23176331 137.40216125 56.2578125 137.4140625 C57.78509476 137.44311172 57.78509476 137.44311172 59.3432312 137.4727478 C62.60373489 137.53265355 65.86427367 137.57897299 69.125 137.625 C71.33204687 137.66316965 73.53907869 137.70222077 75.74609375 137.7421875 C81.16398533 137.84002753 86.5817114 137.9195094 92 138 C92 149.88 92 161.76 92 174 C75.99212854 174.96261142 75.99212854 174.96261142 69 175.171875 C64.28092222 175.31379565 59.5733118 175.47856673 54.86328125 175.81054688 C39.83296209 176.83864302 25.38715443 177.24531835 13.0612793 167.41821289 C3.70395987 159.19290261 -0.95859205 150.42015416 -2.06769562 137.99459076 C-2.60386422 129.07110195 -2.17634298 120.17996605 -1.64794922 111.26708984 C-1.39855275 106.60263518 -1.29203271 101.934879 -1.171875 97.265625 C-0.91744468 88.16725074 -0.49711851 79.08834606 0 70 C-8.91 70 -17.82 70 -27 70 C-27 59.11 -27 48.22 -27 37 C-18.09 37 -9.18 37 0 37 C0 24.79 0 12.58 0 0 Z " fill="#541187" transform="translate(1586,42)"/>
<path d="M0 0 C4.03312389 0.09127988 8.04943123 0.03687903 12.08198452 -0.05461788 C40.91854149 -0.62052251 40.91854149 -0.62052251 50.43505859 7.67578125 C60.87644709 19.1053595 58.66812288 38.70976515 58.3684082 53.07592773 C58.27149742 57.7221425 58.31518278 62.35485733 58.39640713 67.00092411 C58.85681069 98.23832807 58.85681069 98.23832807 51.34156799 107.1592865 C45.86984038 112.41603328 41.35580053 114.58497845 33.73693848 115.08679199 C29.92342649 115.0016316 26.129205 114.50109838 22.33740234 114.0859375 C22.33740234 101.8759375 22.33740234 89.6659375 22.33740234 77.0859375 C10.78740234 77.0859375 -0.76259766 77.0859375 -12.66259766 77.0859375 C-12.66259766 89.2959375 -12.66259766 101.5059375 -12.66259766 114.0859375 C-30.54062288 116.04338552 -30.54062288 116.04338552 -37.81773376 110.73121643 C-45.9745186 103.4421676 -47.79830064 96.14951978 -48.49009705 85.6240387 C-48.819811 78.49062125 -48.79788925 71.36456168 -48.6730957 64.22631836 C-48.59321257 59.58088504 -48.65451806 54.94940279 -48.75141716 50.30475807 C-49.35324053 17.0820219 -49.35324053 17.0820219 -40.76025391 7.67578125 C-30.08378158 -1.6317476 -13.30074231 -0.30178816 0 0 Z " fill="#FEFEFE" transform="translate(113.66259765625,61.9140625)"/>
<path d="M0 0 C11.22 0 22.44 0 34 0 C35 1 35 1 35.09765625 3.28515625 C35.08605469 4.20167969 35.07445312 5.11820312 35.0625 6.0625 C35.05347656 6.98160156 35.04445313 7.90070313 35.03515625 8.84765625 C35.02355469 9.55792969 35.01195312 10.26820312 35 11 C40.4807297 10.16597592 42.19969862 8.75337973 45.625 4.4375 C54.21193734 -3.48082767 67.237156 -0.91657019 78.125 -0.5625 C80.53638373 -0.51731085 82.94784867 -0.47625409 85.359375 -0.43945312 C91.24322832 -0.34840313 97.11573883 -0.17231567 103 0 C103 11.88 103 23.76 103 36 C99.74640625 35.96777344 96.4928125 35.93554688 93.140625 35.90234375 C89.95313457 35.90176 86.76605713 35.91659164 83.57861328 35.93286133 C81.3809857 35.93592389 79.18327263 35.92321846 76.98583984 35.89379883 C73.80673268 35.85407804 70.63225981 35.87303326 67.453125 35.90234375 C66.4869928 35.87776596 65.5208606 35.85318817 64.52545166 35.8278656 C57.35024024 35.97548835 51.90942369 38.16049759 46.36212158 42.73973083 C40.8788353 49.10587873 42.44481502 59.17156171 42.609375 67.00390625 C42.60931861 69.05371262 42.60396851 71.10352507 42.59356689 73.15330505 C42.58042808 78.52532898 42.63879984 83.89424468 42.71246338 89.26568604 C42.78597932 95.72253733 42.769999 102.179722 42.76914978 108.63690948 C42.7778182 118.4265589 42.89959856 128.20892902 43 138 C28.81 138 14.62 138 0 138 C0 92.46 0 46.92 0 0 Z " fill="#551187" transform="translate(1158,78)"/>
<path d="M0 0 C1.1442897 0.00848969 2.28857941 0.01697937 3.46754456 0.02572632 C7.10564161 0.05918816 10.74148439 0.13446146 14.37890625 0.2109375 C16.85218143 0.24104609 19.32549151 0.26842032 21.79882812 0.29296875 C27.84711725 0.35895601 33.89410067 0.45923469 39.94140625 0.5859375 C40.05838443 2.98709824 40.14355021 5.38251335 40.2109375 7.78515625 C40.24707153 8.46026245 40.28320557 9.13536865 40.32043457 9.83093262 C40.39825362 13.5335405 40.11909313 15.34129614 37.91992188 18.36914062 C35.6889005 20.34529681 33.46481004 22.00390714 30.94140625 23.5859375 C29.95140625 24.2459375 28.96140625 24.9059375 27.94140625 25.5859375 C26.01980591 25.85336304 26.01980591 25.85336304 23.82470703 25.87646484 C22.58794724 25.8956044 22.58794724 25.8956044 21.32620239 25.91513062 C20.43867279 25.91735626 19.55114319 25.91958191 18.63671875 25.921875 C17.26252274 25.9318602 17.26252274 25.9318602 15.86056519 25.94204712 C13.9222006 25.95217295 11.98380116 25.95686416 10.04541016 25.95654297 C7.08437392 25.96091099 4.12483446 25.99721659 1.1640625 26.03515625 C-0.72004699 26.0410255 -2.60416356 26.04499417 -4.48828125 26.046875 C-5.37176239 26.06124603 -6.25524353 26.07561707 -7.16549683 26.09042358 C-11.26790534 26.06003979 -13.51643218 25.90788659 -17.11083984 23.7734375 C-19.9026463 20.6379918 -19.79204605 18.35613537 -19.80859375 14.2109375 C-19.8446875 12.92445313 -19.88078125 11.63796875 -19.91796875 10.3125 C-18.90548334 5.9219951 -17.74005727 4.58829312 -14.33157349 1.83059692 C-9.83570527 -0.63129249 -5.00049909 -0.14060924 0 0 Z " fill="#FDFDFE" transform="translate(1333.05859375,157.4140625)"/>
<path d="M0 0 C2.68564243 0.05910563 5.35110574 0.00047217 8.03613281 -0.06982422 C16.36040221 -0.11097036 23.19418174 0.3109621 29.43457031 6.27001953 C35.3031077 12.33995036 33.68457031 14.68915129 33.68457031 24.43408203 C13.22457031 24.43408203 -7.23542969 24.43408203 -28.31542969 24.43408203 C-28.31542969 10.66586884 -28.31542969 10.66586884 -24.06542969 6.27001953 C-17.17056748 -0.31400635 -9.09569999 -0.23813349 0 0 Z " fill="#F7F3F9" transform="translate(498.3154296875,109.56591796875)"/>
<path d="M0 0 C5.49479898 -0.27426047 10.98552926 -0.47255294 16.4855957 -0.60424805 C18.35121108 -0.65919017 20.21636103 -0.73398064 22.08032227 -0.82983398 C39.20243144 -1.68754478 39.20243144 -1.68754478 45.34648132 3.44706726 C47.86834823 5.90253355 49.44392959 7.79667169 51 11 C51 14.63 51 18.26 51 22 C30.87 22 10.74 22 -10 22 C-10 11 -10 11 -8.06640625 8.02734375 C-7.24011719 7.33769531 -6.41382813 6.64804688 -5.5625 5.9375 C-4.73878906 5.22464844 -3.91507813 4.51179688 -3.06640625 3.77734375 C-2.38449219 3.19082031 -1.70257812 2.60429688 -1 2 C-0.67 1.34 -0.34 0.68 0 0 Z " fill="#FCFCFD" transform="translate(833,111)"/>
</svg>
