<?xml version="1.0" encoding="UTF-8"?>
<svg version="1.1" xmlns="http://www.w3.org/2000/svg" width="2250" height="342">
<path d="M0 0 C742.5 0 1485 0 2250 0 C2250 112.86 2250 225.72 2250 342 C1507.5 342 765 342 0 342 C0 229.14 0 116.28 0 0 Z " fill="#FEFEFE" transform="translate(0,0)"/>
<path d="M0 0 C6.50492413 0.2229 12.94796311 0.09040464 19.45077324 -0.13377762 C44.9060772 -0.8830286 67.57340715 1.16786591 87.13674545 18.88715744 C104.63094512 35.96342305 110.74897225 54.31039772 111.16729736 78.45724487 C111.17142805 83.3651793 111.04690284 88.25863954 110.86962891 93.16308594 C110.64665656 99.36639318 110.778858 105.50477203 111.00391102 111.70584774 C111.75703883 136.22061788 109.80949486 156.15108357 92.62710571 174.76293945 C90.91334559 176.50977111 89.18617641 178.24355698 87.4453125 179.96337891 C86.62166576 180.79075562 85.79801903 181.61813232 84.9494133 182.47058105 C74.25681225 192.86933282 64.60550332 198.23570692 49.5610199 198.79356384 C41.26110019 198.43076759 33.02228776 197.16611619 24.78515625 196.08447266 C24.78515625 209.28447266 24.78515625 222.48447266 24.78515625 236.08447266 C13.23515625 236.08447266 1.68515625 236.08447266 -10.21484375 236.08447266 C-10.21484375 222.88447266 -10.21484375 209.68447266 -10.21484375 196.08447266 C-19.15578125 197.29103516 -19.15578125 197.29103516 -28.27734375 198.52197266 C-44.21848614 199.23684857 -54.99247538 195.66077319 -66.85726929 184.88037109 C-68.53276284 183.25500637 -70.19472383 181.6155901 -71.84375 179.96337891 C-72.70036854 179.11834808 -73.55698708 178.27331726 -74.43956375 177.40267944 C-91.5253105 160.00771605 -95.54977734 142.95430756 -95.59510326 119.06338596 C-95.54662889 115.37433657 -95.43313029 111.6927369 -95.29931641 108.00585938 C-95.0763446 101.80256739 -95.20891451 95.66413771 -95.43305588 89.46306038 C-96.19877288 64.65758411 -93.68378835 42.96895517 -76.55566788 23.89882278 C-54.81274803 1.42258264 -29.99664195 -1.03412445 0 0 Z " fill="#551187" transform="translate(169.21484375,69.91552734375)"/>
<path d="M0 0 C35.083125 -1.051875 35.083125 -1.051875 70.875 -2.125 C81.84403564 -2.5893042 81.84403564 -2.5893042 93.03466797 -3.06298828 C145.866299 -4.38501963 145.866299 -4.38501963 163.09329224 10.77963257 C174.83294641 22.30612601 183.71919822 36.3442654 184.56141663 53.09915161 C184.51107575 56.83625001 184.27689003 60.52334599 184 64.25 C183.96375519 65.53865967 183.92751038 66.82731934 183.89016724 68.1550293 C183.4024097 84.39970544 180.70015879 96.844509 169.14648438 108.67871094 C164.55956173 112.98960115 159.68613611 116.99033664 154.45970154 120.50445557 C152.44103403 121.83172239 152.44103403 121.83172239 150 124 C149.90995256 127.14461959 151.6570836 129.22002256 153.484375 131.6953125 C154.0009668 132.40212158 154.51755859 133.10893066 155.04980469 133.8371582 C155.61086914 134.592146 156.17193359 135.34713379 156.75 136.125 C157.93762333 137.7460034 159.12511971 139.36709982 160.3125 140.98828125 C161.22902344 142.23279053 161.22902344 142.23279053 162.1640625 143.50244141 C165.59897905 148.17520687 169.00605158 152.86861375 172.37475586 157.58935547 C174.78538824 160.96564728 177.21104578 164.29817761 179.81640625 167.52734375 C180.24147461 168.07672607 180.66654297 168.6261084 181.10449219 169.19213867 C182.21091293 170.61899209 183.34816258 172.02180109 184.48828125 173.421875 C186.89329349 179.11435876 186.27796938 184.90456603 186 191 C146.41393575 194.22468078 146.41393575 194.22468078 136.640625 189.31103516 C131.86827656 184.98609438 129.45256713 179.60382893 127.13964844 173.68017578 C125.36237164 169.50045327 122.72634454 166.10256103 120 162.5 C119.03004883 161.13643121 118.06526067 159.7691762 117.10546875 158.3984375 C115.45083173 156.0535125 113.79443705 153.7098758 112.13525391 151.36816406 C110.1908737 148.6228717 108.25136189 145.87419152 106.3125 143.125 C105.69955078 142.26197266 105.08660156 141.39894531 104.45507812 140.50976562 C103.88853516 139.70474609 103.32199219 138.89972656 102.73828125 138.0703125 C102.23337158 137.35633301 101.72846191 136.64235352 101.20825195 135.90673828 C100 134 100 134 99 131 C81.84 131 64.68 131 47 131 C47 150.8 47 170.6 47 191 C31.49 191 15.98 191 0 191 C0 127.97 0 64.94 0 0 Z " fill="#541187" transform="translate(1379,75)"/>
<path d="M0 0 C21.78 0 43.56 0 66 0 C73.86390331 16.85122138 73.86390331 16.85122138 76.26171875 22.6875 C76.53002502 23.33673431 76.7983313 23.98596863 77.07476807 24.65487671 C77.64915971 26.04497816 78.22219378 27.4356413 78.79391479 28.82684326 C80.40073063 32.73454299 82.02057857 36.63683304 83.640625 40.5390625 C83.98677353 41.37305573 84.33292206 42.20704895 84.68955994 43.0663147 C89.04062458 53.53005867 93.49123576 63.95144857 97.9375 74.375 C107.82222687 97.55560131 107.82222687 97.55560131 112.234375 108.03515625 C112.56691788 108.82478256 112.89946075 109.61440887 113.24208069 110.42796326 C114.8664109 114.28799988 116.48566646 118.15007228 118.09741211 122.01538086 C121.17206959 129.37546035 124.2949938 136.70668905 127.5506134 143.98887634 C129.15995643 147.5931415 130.74945407 151.20602214 132.33828735 154.81936646 C133.09934425 156.53454842 133.87014942 158.24544559 134.65170288 159.9513855 C135.7411951 162.33080226 136.79509856 164.72345226 137.84375 167.12109375 C138.32525261 168.13623047 138.32525261 168.13623047 138.81648254 169.171875 C142.10648799 176.88738919 141 181.56215703 141 191 C126.15 191 111.3 191 96 191 C92.62713776 184.25427553 89.73711535 177.60210416 86.99853516 170.59838867 C86.24380493 168.67168499 85.4796396 166.74889891 84.71484375 164.82617188 C84.23660156 163.60865234 83.75835938 162.39113281 83.265625 161.13671875 C82.83024414 160.03030029 82.39486328 158.92388184 81.94628906 157.78393555 C81 155 81 155 81 152 C48.99 152 16.98 152 -16 152 C-16.33 153.65 -16.66 155.3 -17 157 C-17.93028751 159.5804571 -18.89164186 162.12528705 -19.90625 164.671875 C-20.19101196 165.39489807 -20.47577393 166.11792114 -20.76916504 166.862854 C-21.36900326 168.38315914 -21.97089039 169.9026573 -22.57470703 171.42138672 C-23.50165031 173.75415322 -24.42121578 176.08972946 -25.33984375 178.42578125 C-25.92404661 179.90381688 -26.50866733 181.38168743 -27.09375 182.859375 C-27.36981079 183.56036316 -27.64587158 184.26135132 -27.93029785 184.98358154 C-29.88436026 189.88436026 -29.88436026 189.88436026 -31 191 C-32.38160115 191.0927833 -33.76788038 191.11747043 -35.15258789 191.11352539 C-36.03342545 191.11344986 -36.914263 191.11337433 -37.8217926 191.11329651 C-38.77907761 191.10813522 -39.73636261 191.10297394 -40.72265625 191.09765625 C-41.69786728 191.0962413 -42.67307831 191.09482635 -43.67784119 191.09336853 C-46.80609143 191.08775133 -49.93427123 191.07519593 -53.0625 191.0625 C-55.17773334 191.05748722 -57.29296781 191.05292393 -59.40820312 191.04882812 C-64.60549296 191.03777631 -69.80274145 191.02102146 -75 191 C-75.71929144 180.14010957 -74.47333461 172.7819735 -69.6875 162.875 C-68.78955648 160.92582566 -67.9027467 158.97178734 -67.01568604 157.01763916 C-66.37483646 155.60808326 -65.73066981 154.20003141 -65.08343506 152.793396 C-61.29643785 144.54641733 -57.805539 136.17717347 -54.30117798 127.80718994 C-52.28415561 122.99315244 -50.25521356 118.18414614 -48.2265625 113.375 C-47.80681656 112.37953156 -47.38707062 111.38406311 -46.9546051 110.35842896 C-41.83504656 98.22534879 -36.66630924 86.11322707 -31.5 74 C-23.18122707 54.49475486 -14.90344051 34.97272489 -6.67382812 15.4296875 C-6.29584076 14.53264099 -5.91785339 13.63559448 -5.52841187 12.71136475 C-4.8259977 11.04418251 -4.12415982 9.37675732 -3.42300415 7.70904541 C-1.11189327 2.22378654 -1.11189327 2.22378654 0 0 Z " fill="#541087" transform="translate(1669,76)"/>
<path d="M0 0 C55.77 0 111.54 0 169 0 C169 12.87 169 25.74 169 39 C128.41 39 87.82 39 46 39 C46 51.21 46 63.42 46 76 C76.69 76 107.38 76 139 76 C139 88.21 139 100.42 139 113 C108.64 113 78.28 113 47 113 C47 125.54 47 138.08 47 151 C87.92 151 128.84 151 171 151 C171 164.2 171 177.4 171 191 C114.57 191 58.14 191 0 191 C0 127.97 0 64.94 0 0 Z " fill="#551187" transform="translate(973,75)"/>
<path d="M0 0 C55.44 0 110.88 0 168 0 C168 12.87 168 25.74 168 39 C127.74 39 87.48 39 46 39 C46 51.21 46 63.42 46 76 C76.36 76 106.72 76 138 76 C138 88.21 138 100.42 138 113 C107.64 113 77.28 113 46 113 C46 125.54 46 138.08 46 151 C87.25 151 128.5 151 171 151 C171 164.2 171 177.4 171 191 C114.57 191 58.14 191 0 191 C0 127.97 0 64.94 0 0 Z " fill="#541087" transform="translate(543,75)"/>
<path d="M0 0 C15.51 0 31.02 0 47 0 C46.94650391 4.00576172 46.89300781 8.01152344 46.83789062 12.13867188 C46.67234596 25.41784719 46.5949312 38.69633376 46.56215668 51.97644806 C46.54016971 60.02359357 46.48871816 68.068458 46.36572266 76.11474609 C46.25848301 83.13534219 46.20874526 90.15370173 46.22555113 97.17513514 C46.23249452 100.88769236 46.21236133 104.59527521 46.12312317 108.30686951 C45.35691713 126.70593737 45.35691713 126.70593737 53.22068024 142.72277069 C58.97569207 148.39777432 65.02001893 152.79901256 73.33056641 153.22314453 C74.33522949 153.19075684 75.33989258 153.15836914 76.375 153.125 C77.4686084 153.14030762 78.5622168 153.15561523 79.68896484 153.17138672 C81.97443599 153.18215339 84.2604234 153.15347242 86.54492188 153.0859375 C90.00486298 152.99987904 93.43169046 153.08524611 96.890625 153.1875 C99.13548843 153.17692463 101.38033154 153.15641941 103.625 153.125 C104.62966309 153.1573877 105.63432617 153.18977539 106.66943359 153.22314453 C114.98728469 152.79863982 121.02181569 148.3884359 126.77931976 142.70800781 C135.55338569 132.41775947 134.13352121 119.08484589 133.8242321 106.31919861 C133.75150218 102.60639961 133.77095265 98.89400249 133.77990723 95.18066406 C133.78316175 88.17447262 133.70558722 81.17169332 133.59768724 74.16642761 C133.47871801 66.18081468 133.45179377 58.1956792 133.43193531 50.20930099 C133.38911559 33.80424545 133.22073819 17.40377306 133 1 C148.51 1 164.02 1 180 1 C180.9348758 19.85011292 181.68568187 38.68080677 182.12429905 57.54841518 C182.33360763 66.31425296 182.61839325 75.06426991 183.09301758 83.82006836 C186.52700023 148.57662904 186.52700023 148.57662904 167.64012146 170.70976257 C152.2552638 186.98994922 134.41602483 196.49412179 111.91534233 197.59642982 C106.69431477 197.70658085 101.5050316 197.57842491 96.2890625 197.34521484 C91.02091037 197.11036556 85.83691689 197.25016581 80.57163143 197.48556805 C56.11151736 198.42132487 35.92595431 192.87371611 17.59765625 176.05859375 C0.46877524 159.39127576 -3.4501695 141.92207168 -3.95784378 118.95735168 C-4.12241746 106.216606 -3.63782631 93.51400898 -2.95313776 80.79420424 C-2.48620724 71.96525077 -2.26734082 63.13464244 -2.06326783 54.29633129 C-1.63971925 36.18065182 -0.89139217 18.09910754 0 0 Z " fill="#551288" transform="translate(316,74)"/>
<path d="M0 0 C15.18 0 30.36 0 46 0 C46 44.22 46 88.44 46 134 C47.32 134.66 48.64 135.32 50 136 C51.64746094 137.38867188 51.64746094 137.38867188 53.234375 138.96875 C53.80800781 139.53980469 54.38164063 140.11085937 54.97265625 140.69921875 C55.55917969 141.29347656 56.14570312 141.88773438 56.75 142.5 C57.35199219 143.09425781 57.95398438 143.68851563 58.57421875 144.30078125 C59.14269531 144.87183594 59.71117187 145.44289062 60.296875 146.03125 C60.81604492 146.55267578 61.33521484 147.07410156 61.87011719 147.61132812 C63 149 63 149 63 151 C70.25528951 151.26554518 77.50519736 151.40097161 84.76513672 151.45166016 C87.22694619 151.48352303 89.68857543 151.54373856 92.14892578 151.63427734 C95.71711765 151.76041822 99.27357255 151.77987882 102.84375 151.78125 C104.4588446 151.87231018 104.4588446 151.87231018 106.10656738 151.96520996 C114.78989539 151.81108757 120.83331024 147.66771096 126.81916809 141.72550201 C135.53757475 131.41193899 134.13328567 118.07512405 133.8242321 105.31919861 C133.75150218 101.60639961 133.77095265 97.89400249 133.77990723 94.18066406 C133.78316175 87.17447262 133.70558722 80.17169332 133.59768724 73.16642761 C133.47871801 65.18081468 133.45179377 57.1956792 133.43193531 49.20930099 C133.38911559 32.80424545 133.22073819 16.40377306 133 0 C148.18 0 163.36 0 179 0 C179.9348758 18.85011292 180.68568187 37.68080677 181.12429905 56.54841518 C181.33360763 65.31425291 181.61839164 74.06427002 182.09301758 82.82006836 C185.52729131 147.5800833 185.52729131 147.5800833 166.61460876 169.70976257 C151.31089968 185.88402513 133.5542025 195.48773326 111.16738701 196.59642982 C106.00461704 196.706552 100.87395979 196.57849912 95.71630859 196.34521484 C90.50835733 196.11033582 85.38552389 196.25014745 80.18047237 196.48557568 C55.83170022 197.42774273 35.85250815 191.75155981 17.62890625 175.02734375 C0.54029994 158.4026846 -3.45111733 141.06260986 -3.95834732 118.14305115 C-4.12145819 105.48869715 -3.6379497 92.87286019 -2.95313728 80.23958635 C-2.4861511 71.47111865 -2.26732838 62.70098165 -2.06326783 53.92308891 C-1.63975493 35.93170148 -0.89145933 17.9746969 0 0 Z " fill="#541087" transform="translate(747,75)"/>
<path d="M0 0 C7.45257093 0.44518624 14.90698361 0.65256827 22.36964262 0.84647107 C37.65855376 1.24873851 52.9104379 1.95998047 68.18204641 2.80909169 C68.18204641 15.67909169 68.18204641 28.54909169 68.18204641 41.80909169 C65.07983694 41.76083241 61.97762747 41.71257313 58.78141165 41.66285145 C48.48383459 41.51375339 38.18691637 41.44831522 27.88832903 41.42306054 C21.64914965 41.40522988 15.41277099 41.36002149 9.17447805 41.2502538 C3.14349182 41.14517412 -2.88385866 41.11461325 -8.91568422 41.13375103 C-11.20614925 41.12830128 -13.49671744 41.09687118 -15.78643084 41.03794491 C-26.10209178 40.78723154 -35.40593984 40.58137292 -43.73972654 47.35511887 C-50.28705977 53.65798252 -53.426677 59.87276402 -53.87329817 68.94101822 C-53.90285588 71.3791501 -53.86119643 73.80890855 -53.81014109 76.24659169 C-53.82028386 77.98286932 -53.83487332 79.71912596 -53.85362864 81.45533192 C-53.87557505 85.07110984 -53.84421149 88.68127903 -53.77351999 92.29639637 C-53.68799051 96.88953299 -53.73730026 101.46953328 -53.82710695 106.06218922 C-53.88180744 109.64091703 -53.86385025 113.21662197 -53.82519007 116.79545033 C-53.81531657 118.48563216 -53.826991 120.17610586 -53.86238337 121.86594594 C-54.02291027 131.67956739 -52.4868031 138.93178423 -45.72054148 146.35621083 C-37.83805516 153.94437455 -29.68119402 154.70137386 -19.10959482 154.66100514 C-16.86780982 154.60652046 -14.62606462 154.55037619 -12.38435984 154.49268544 C-10.05167885 154.48713524 -7.71897355 154.48822927 -5.3862977 154.49563038 C0.70635041 154.49735722 6.79445061 154.40980804 12.88602591 154.30262196 C19.12054535 154.2090583 25.35513378 154.20133486 31.59024954 154.18604481 C43.78945658 154.14364861 55.9842408 153.99884589 68.18204641 153.80909169 C68.18204641 167.00909169 68.18204641 180.20909169 68.18204641 193.80909169 C52.16519038 194.69963914 36.1702951 195.41312896 20.13533831 195.82976639 C12.6848975 196.02861785 5.25138157 196.29890552 -2.18831491 196.75123036 C-57.01470911 200.0098928 -57.01470911 200.0098928 -78.06619883 182.55678761 C-94.74458735 167.27733966 -102.48069791 150.10272677 -103.99764109 127.65284169 C-104.28638312 120.33336886 -104.1667241 113.04865835 -103.90242624 105.73047841 C-103.67945509 99.52720459 -103.81209933 93.38877924 -104.03605223 87.1877166 C-104.79436873 62.64620237 -102.28451665 40.57035641 -85.58437777 21.48485959 C-61.8135039 -3.62165693 -31.89680329 -1.93928829 0 0 Z " fill="#541087" transform="translate(1273.8179535865784,72.19090831279755)"/>
<path d="M0 0 C53.79 0 107.58 0 163 0 C163 13.2 163 26.4 163 40 C124.72 40 86.44 40 47 40 C47 55.84 47 71.68 47 88 C75.71 88 104.42 88 134 88 C134 100.54 134 113.08 134 126 C105.29 126 76.58 126 47 126 C47 147.78 47 169.56 47 192 C31.49 192 15.98 192 0 192 C0 128.64 0 65.28 0 0 Z " fill="#561288" transform="translate(1831,74)"/>
<path d="M0 0 C4.03312389 0.09127988 8.04943123 0.03687903 12.08198452 -0.05461788 C40.91854149 -0.62052251 40.91854149 -0.62052251 50.43505859 7.67578125 C60.87644709 19.1053595 58.66812288 38.70976515 58.3684082 53.07592773 C58.27149742 57.7221425 58.31518278 62.35485733 58.39640713 67.00092411 C58.85681069 98.23832807 58.85681069 98.23832807 51.34156799 107.1592865 C45.86984038 112.41603328 41.35580053 114.58497845 33.73693848 115.08679199 C29.92342649 115.0016316 26.129205 114.50109838 22.33740234 114.0859375 C22.33740234 101.8759375 22.33740234 89.6659375 22.33740234 77.0859375 C10.78740234 77.0859375 -0.76259766 77.0859375 -12.66259766 77.0859375 C-12.66259766 89.2959375 -12.66259766 101.5059375 -12.66259766 114.0859375 C-33.18036938 114.0859375 -33.18036938 114.0859375 -37.83496094 110.43554688 C-48.8782537 99.25948677 -48.86024804 86.65984523 -48.87106323 71.70947266 C-48.84990177 68.99834155 -48.80306918 66.28877775 -48.74853516 63.578125 C-48.65728399 59.00090109 -48.71160234 54.43850531 -48.80323029 49.86178589 C-49.36813699 17.15697079 -49.36813699 17.15697079 -40.75634766 7.7109375 C-30.0792645 -1.63429158 -13.31993383 -0.30227098 0 0 Z " fill="#FEFDFE" transform="translate(171.66259765625,111.9140625)"/>
<path d="M0 0 C0.99591408 -0.0076664 0.99591408 -0.0076664 2.01194763 -0.01548767 C4.20157955 -0.0293602 6.39089582 -0.0284285 8.58056641 -0.02612305 C10.10747392 -0.03001173 11.63438036 -0.03434675 13.1612854 -0.03910828 C16.36065172 -0.04656578 19.55990769 -0.04628298 22.75927734 -0.04101562 C26.85040797 -0.03522643 30.94108506 -0.0521406 35.03214073 -0.0753603 C38.18580752 -0.0901254 41.33936584 -0.0909655 44.49306107 -0.08785057 C46.00088015 -0.08836255 47.5087055 -0.09357709 49.01649094 -0.10366249 C51.12977903 -0.11606181 53.24219362 -0.109215 55.35546875 -0.09765625 C56.55585785 -0.09828568 57.75624695 -0.0989151 58.99301147 -0.0995636 C63.42137596 0.40047618 66.83202058 1.62217379 69.84701538 4.99971008 C72.69563806 9.97365891 75.10159826 15.01815307 77.28369141 20.31762695 C77.8278772 21.61466049 77.8278772 21.61466049 78.38305664 22.93789673 C79.5724791 25.77668902 80.75220965 28.61940452 81.93212891 31.4621582 C82.77301986 33.47312993 83.61466768 35.48378531 84.45703125 37.49414062 C86.20690001 41.67202818 87.95350801 45.8512561 89.69775391 50.03149414 C93.35629261 58.79317829 97.05151585 67.53933223 100.74798584 76.2850647 C101.93916151 79.10379978 103.12936276 81.92294458 104.31933594 84.7421875 C108.77220501 95.28972316 113.23692139 105.83212567 117.72094727 116.36645508 C119.10506224 119.61928464 120.48309786 122.87458763 121.85620117 126.13208008 C125.24119256 134.14975248 128.67603201 142.13822706 132.23806763 150.07913208 C134.03446359 154.09524598 135.80366836 158.12306898 137.5703125 162.15234375 C138.42108653 164.0740188 139.28410262 165.99033154 140.16064453 167.90039062 C146.09557466 180.8467069 151.08462352 194.4657094 146.13745117 208.62158203 C143.75643163 212.07290114 142.3154312 212.97094273 138.30712891 214.2746582 C134.44712561 214.68928771 130.62010394 214.69513525 126.74072266 214.6730957 C125.62907242 214.67596588 124.51742218 214.67883606 123.37208557 214.68179321 C121.02791839 214.68383007 118.68373406 214.67832676 116.33959961 214.66577148 C112.75351986 214.64969805 109.16856459 214.66564168 105.58251953 214.68481445 C103.30191809 214.68283225 101.02131735 214.67898906 98.74072266 214.6730957 C97.66978867 214.6791684 96.59885468 214.68524109 95.49546814 214.6914978 C85.96825554 214.60152217 85.96825554 214.60152217 82.30712891 211.2746582 C80.99267578 209.21264648 80.99267578 209.21264648 80.02587891 206.8449707 C79.66099365 205.97267822 79.2961084 205.10038574 78.92016602 204.20166016 C78.55286377 203.27699951 78.18556152 202.35233887 77.80712891 201.3996582 C77.41984619 200.45888428 77.03256348 199.51811035 76.63354492 198.54882812 C75.50703345 195.79751781 74.40371364 193.03801052 73.30712891 190.2746582 C73.01177246 189.54037598 72.71641602 188.80609375 72.41210938 188.04956055 C68.30712891 177.83367108 68.30712891 177.83367108 68.30712891 175.2746582 C41.57712891 175.6046582 14.84712891 175.9346582 -12.69287109 176.2746582 C-16.65287109 186.1746582 -20.61287109 196.0746582 -24.69287109 206.2746582 C-28.69287109 212.2746582 -28.69287109 212.2746582 -31.69287109 214.2746582 C-33.98738098 214.54881287 -33.98738098 214.54881287 -36.71166992 214.58105469 C-37.73315628 214.59704208 -38.75464264 214.61302948 -39.80708313 214.62950134 C-40.91021347 214.63486404 -42.01334381 214.64022675 -43.14990234 214.64575195 C-44.2856218 214.65478043 -45.42134125 214.6638089 -46.59147644 214.67311096 C-48.99642292 214.68762874 -51.40140902 214.69650397 -53.80639648 214.70019531 C-57.48082356 214.71207881 -61.15356483 214.761242 -64.82763672 214.81176758 C-67.16421706 214.82123309 -69.50080773 214.82846751 -71.83740234 214.83325195 C-72.93445999 214.85278427 -74.03151764 214.87231659 -75.16181946 214.8924408 C-83.6854506 214.84219134 -83.6854506 214.84219134 -87.37133789 211.92724609 C-92.66233599 205.88174243 -91.38781824 196.51324145 -90.97833252 188.89562988 C-90.21471054 181.88441437 -87.09429539 175.71186237 -84.13037109 169.3996582 C-83.4132252 167.79736217 -82.70023942 166.19319908 -81.9909668 164.58740234 C-80.43178599 161.06533618 -78.85539686 157.55165306 -77.26904297 154.04174805 C-72.97433045 144.48710555 -68.93344451 134.82190385 -64.84899902 125.17608643 C-62.88058714 120.53336015 -60.90185704 115.89506248 -58.92315674 111.25671387 C-53.60143421 98.78062846 -48.31339768 86.290634 -43.04656982 73.79129028 C-40.75463001 68.35400584 -38.45809872 62.91865984 -36.16104126 57.48353577 C-34.16886856 52.76975893 -32.1786979 48.05515411 -30.19189453 43.33911133 C-28.11778724 38.41780158 -26.03520111 33.50015418 -23.94692993 28.58483887 C-23.16120761 26.73178586 -22.3782449 24.87755997 -21.59823608 23.02209473 C-20.52388891 20.46765869 -19.43969572 17.91762224 -18.35302734 15.3684082 C-18.04033905 14.61855652 -17.72765076 13.86870483 -17.40548706 13.09613037 C-15.40619361 8.4430997 -13.37213169 4.02412296 -8.98484802 1.15937805 C-5.90961257 -0.02768531 -3.29577548 0.0126668 0 0 Z M-4.69287109 12.2746582 C-18.30890283 43.6809929 -18.30890283 43.6809929 -31.64038086 75.20800781 C-36.4760937 86.79612249 -41.39459208 98.34851471 -46.31787109 109.8996582 C-54.1201277 128.20617974 -61.88026165 146.53003097 -69.6015625 164.87084961 C-69.98160431 165.77268982 -70.36164612 166.67453003 -70.75320435 167.60369873 C-71.45405191 169.26683335 -72.15421254 170.93025773 -72.85348511 172.59405518 C-73.32795578 173.71961823 -73.32795578 173.71961823 -73.81201172 174.86791992 C-74.1166333 175.60604919 -74.42125488 176.34417847 -74.73510742 177.10467529 C-75.69287109 179.2746582 -75.69287109 179.2746582 -76.82055664 181.31036377 C-81.03347802 189.23859738 -79.69287109 192.84272258 -79.69287109 203.2746582 C-65.17287109 203.2746582 -50.65287109 203.2746582 -35.69287109 203.2746582 C-32.07095096 195.3064339 -28.62834463 187.38737432 -25.38037109 179.2746582 C-24.92597656 178.15704102 -24.47158203 177.03942383 -24.00341797 175.88793945 C-23.36049805 174.28499023 -23.36049805 174.28499023 -22.70458984 172.6496582 C-22.31746826 171.68801758 -21.93034668 170.72637695 -21.53149414 169.7355957 C-20.53159149 167.23470093 -20.53159149 167.23470093 -20.69287109 164.2746582 C11.31712891 164.2746582 43.32712891 164.2746582 76.30712891 164.2746582 C76.63712891 165.9246582 76.96712891 167.5746582 77.30712891 169.2746582 C78.23741641 171.8551153 79.19877077 174.39994525 80.21337891 176.9465332 C80.49814087 177.66955627 80.78290283 178.39257935 81.07629395 179.13751221 C81.67613217 180.65781734 82.27801929 182.1773155 82.88183594 183.69604492 C83.80877922 186.02881142 84.72834469 188.36438766 85.64697266 190.70043945 C86.23117551 192.17847508 86.81579624 193.65634563 87.40087891 195.1340332 C87.6769397 195.83502136 87.95300049 196.53600952 88.23742676 197.25823975 C89.36950615 200.50943264 89.36950615 200.50943264 91.30712891 203.2746582 C92.71937936 203.36753081 94.13621825 203.39212592 95.55151367 203.38818359 C96.45237198 203.38810806 97.35323029 203.38803253 98.28138733 203.38795471 C99.7501255 203.38021278 99.7501255 203.38021278 101.24853516 203.37231445 C102.24594223 203.37089951 103.2433493 203.36948456 104.27098083 203.36802673 C107.47056014 203.36240935 110.67007059 203.34985391 113.86962891 203.3371582 C116.03303936 203.33214544 118.1964509 203.32758215 120.35986328 203.32348633 C125.67564216 203.31243427 130.99138062 203.29567924 136.30712891 203.2746582 C137.18460773 192.47269114 135.56160341 184.52725106 130.98498535 174.76300049 C129.95324243 172.56134274 128.95638387 170.34642071 127.96630859 168.12573242 C126.89066664 165.71468179 125.81280074 163.30486347 124.72488403 160.89932251 C120.73674031 152.07767924 116.98840849 143.15838521 113.24502563 134.23077393 C111.64198917 130.41025517 110.0314577 126.59291479 108.42094421 122.77554321 C107.19550861 119.87089868 105.97095862 116.96588209 104.74658203 114.06079102 C102.34694968 108.36818882 99.9446827 102.67670152 97.54150391 96.9855957 C97.14989075 96.05817062 96.75827759 95.13074554 96.35479736 94.17521667 C94.39291086 89.52928538 92.43070009 84.88349118 90.46826172 80.23779297 C86.75210109 71.43954911 83.0387737 62.6401381 79.33435059 53.83694458 C77.58189839 49.6728547 75.82799381 45.50937728 74.07397461 41.34594727 C73.23714659 39.35846056 72.40103263 37.37067303 71.56567383 35.38256836 C70.40837486 32.62838895 69.24863345 29.8752498 68.08837891 27.12231445 C67.5787561 25.90675621 67.5787561 25.90675621 67.05883789 24.66664124 C66.57942749 23.53107033 66.57942749 23.53107033 66.09033203 22.37255859 C65.8167688 21.72219131 65.54320557 21.07182404 65.26135254 20.40174866 C64.02824963 17.65299947 62.65443473 14.96926984 61.30712891 12.2746582 C39.52712891 12.2746582 17.74712891 12.2746582 -4.69287109 12.2746582 Z " fill="#77BAED" transform="translate(1673.69287109375,63.725341796875)"/>
<path d="M0 0 C13.86 0 27.72 0 42 0 C42 58.08 42 116.16 42 176 C28.14 176 14.28 176 0 176 C0 117.92 0 59.84 0 0 Z " fill="#541187" transform="translate(2073,85)"/>
<path d="M0 0 C62.7 0 125.4 0 190 0 C190 12.87 190 25.74 190 39 C167.56 39 145.12 39 122 39 C122 26.46 122 13.92 122 1 C102.2 1 82.4 1 62 1 C62 65.02 62 129.04 62 195 C61.67 195 61.34 195 61 195 C61 143.52 61 92.04 61 39 C40.87 39 20.74 39 0 39 C0 26.13 0 13.26 0 0 Z " fill="#541388" transform="translate(2002,75)"/>
<path d="M0 0 C17.94646391 -0.52141452 17.94646391 -0.52141452 25.66992188 -0.63476562 C30.91607204 -0.71212762 36.15923953 -0.80303293 41.40307617 -0.98071289 C45.63742116 -1.12326936 49.86856601 -1.19994909 54.10512733 -1.23340416 C55.7109343 -1.25720109 57.31658969 -1.30367651 58.92101097 -1.37449074 C67.25316689 -1.72720234 73.3531659 -1.40165694 79.7566576 4.38020039 C84.82755282 9.45463599 87.65747199 13.12517824 88.55078125 20.3671875 C88.53902001 22.87102415 88.45899997 25.37542523 88.3125 27.875 C88.32087891 29.14085937 88.32925781 30.40671875 88.33789062 31.7109375 C88.10098395 40.55545333 88.10098395 40.55545333 85.30224609 44.22753906 C83.23046875 46.0078125 83.23046875 46.0078125 81.19213867 47.37939453 C78.76030836 49.00179909 78.76030836 49.00179909 76.82302856 52.05871582 C74.64424379 54.69843693 74.15889192 54.96638572 70.58940125 55.7215271 C68.63415276 55.7015416 68.63415276 55.7015416 66.6394043 55.68115234 C65.91690994 55.6820285 65.19441559 55.68290466 64.45002747 55.68380737 C62.07363878 55.67964342 59.70011101 55.63305673 57.32421875 55.5859375 C55.67228233 55.5747409 54.02032593 55.5662029 52.36836243 55.56021118 C48.02937397 55.53734878 43.69159883 55.47844959 39.35308838 55.4119873 C34.14285099 55.33969083 28.9322069 55.31224623 23.72161102 55.27726746 C15.8135646 55.21916671 7.90817804 55.1041819 0 55 C0 36.85 0 18.7 0 0 Z " fill="#FEFEFE" transform="translate(1426,113)"/>
<path d="M0 0 C19.8 0 39.6 0 60 0 C60 12.54 60 25.08 60 38 C82.44 38 104.88 38 128 38 C128 38.33 128 38.66 128 39 C105.56 39 83.12 39 60 39 C60 90.15 60 141.3 60 194 C40.2 194 20.4 194 0 194 C0 129.98 0 65.96 0 0 Z M9 9 C9 67.08 9 125.16 9 185 C22.86 185 36.72 185 51 185 C51 126.92 51 68.84 51 9 C37.14 9 23.28 9 9 9 Z " fill="#77BAED" transform="translate(2064,76)"/>
<path d="M0 0 C2.31 0 4.62 0 7 0 C13.75747604 16.03538165 20.30865297 32.14723842 26.66064453 48.34768677 C27.38711458 50.19982313 28.11530641 52.05128507 28.84521484 53.90206909 C29.87613696 56.51858533 30.90006849 59.13772516 31.921875 61.7578125 C32.23380798 62.54721725 32.54574097 63.33662201 32.86712646 64.14994812 C34.06171149 67.23374107 35 69.66246844 35 73 C14.21 73 -6.58 73 -28 73 C-27.258368 68.550208 -26.60199388 65.58749604 -24.94628906 61.56811523 C-24.52204651 60.52940781 -24.09780396 59.49070038 -23.66070557 58.42051697 C-23.20032898 57.31108231 -22.73995239 56.20164764 -22.265625 55.05859375 C-21.79058533 53.89932877 -21.31554565 52.74006378 -20.82611084 51.54566956 C-19.56326258 48.46640688 -18.29525423 45.38938091 -17.02441406 42.31341553 C-15.24907654 38.01289544 -13.48326879 33.70845477 -11.71673584 29.40431213 C-10.77830013 27.11937413 -9.8378823 24.83524875 -8.89508057 22.55210876 C-5.81658742 15.07683786 -2.87156388 7.55712016 0 0 Z " fill="#75B6EB" transform="translate(1698,116)"/>
<path d="M0 0 C3.09392492 1.54696246 3.5843549 4.54687977 4.75 7.6328125 C5.0087793 8.30287323 5.26755859 8.97293396 5.53417969 9.66329956 C6.08208151 11.08611352 6.62658331 12.51024067 7.16796875 13.93554688 C7.98976462 16.09806605 8.82201372 18.2563163 9.65625 20.4140625 C10.18812908 21.79923778 10.719398 23.18464753 11.25 24.5703125 C11.49588867 25.20913361 11.74177734 25.84795471 11.99511719 26.50613403 C13.56506393 30.65126712 14.7743309 34.71015816 16 39 C5.77 39 -4.46 39 -15 39 C-14.07422177 34.37110883 -12.64958473 30.38952675 -10.83984375 26.07421875 C-10.53051407 25.32662796 -10.22118439 24.57903717 -9.90248108 23.80879211 C-8.9184082 21.43323655 -7.92805498 19.06035895 -6.9375 16.6875 C-6.26716128 15.07243857 -5.5972348 13.45720598 -4.92773438 11.84179688 C-3.28992418 7.89253283 -1.64647837 3.94565763 0 0 Z " fill="#F8FCFE" transform="translate(1701,139)"/>
</svg>
